<?xml version="1.0" encoding="utf-8"?>
<!-- Generator: Adobe Illustrator 22.1.0, SVG Export Plug-In . SVG Version: 6.00 Build 0)  -->
<svg version="1.1"
	 id="svg2" inkscape:version="0.91 r13725" sodipodi:docname="Bravo.svg" xmlns:cc="http://creativecommons.org/ns#" xmlns:dc="http://purl.org/dc/elements/1.1/" xmlns:inkscape="http://www.inkscape.org/namespaces/inkscape" xmlns:rdf="http://www.w3.org/1999/02/22-rdf-syntax-ns#" xmlns:sodipodi="http://sodipodi.sourceforge.net/DTD/sodipodi-0.dtd" xmlns:svg="http://www.w3.org/2000/svg"
	 xmlns="http://www.w3.org/2000/svg" xmlns:xlink="http://www.w3.org/1999/xlink" x="0px" y="0px" viewBox="0 0 999 755"
	 style="enable-background:new 0 0 999 755;" xml:space="preserve">
<style type="text/css">
	.st0{fill:#FFFFFF;}
</style>
<sodipodi:namedview  bordercolor="#666666" borderopacity="1.0" fit-margin-bottom="0.5" fit-margin-left="0.5" fit-margin-right="0.5" fit-margin-top="0.5" id="base" inkscape:current-layer="layer1" inkscape:cx="7.414998" inkscape:cy="277.31551" inkscape:document-units="px" inkscape:pageopacity="0.0" inkscape:pageshadow="2" inkscape:window-height="931" inkscape:window-maximized="1" inkscape:window-width="1680" inkscape:window-x="0" inkscape:window-y="1" inkscape:zoom="0.20108349" pagecolor="#ffffff" showgrid="false">
	
		<inkscape:grid  empspacing="5" enabled="true" id="grid2996" originx="-59.5px" originy="-83.771963px" snapvisiblegridlinesonly="true" type="xygrid" visible="true">
		</inkscape:grid>
</sodipodi:namedview>
<g>
	<path class="st0" d="M0,0v755l208.2-197H999V0H0z M176.6,379.3c-36.5,0-50.8-23.6-50.8-23.6v19.5h-36V163.8l36-33v100.9
		c0,0,14.6-23.6,50.8-23.6c46.1,0,81.4,36.1,81.4,85.7C258.1,339.2,226.8,379.3,176.6,379.3z M384.1,248c0,0-12.1-5.8-26.7-5.8
		c-27.9,0-39.2,19.9-39.2,42.5v90.4h-36V212.3h35.5v18c0,0,11.9-22.1,47.5-22.1c15.7,0,27,4.3,27,4.3L384.1,248z M560.8,375.1h-36
		v-19.5c0,0-14.3,23.6-50.8,23.6c-50.2,0-81.5-40-81.5-85.4c0-49.6,35.4-85.7,81.4-85.7c36.2,0,50.8,23.6,50.8,23.6v-19.5h36V375.1z
		 M643.4,375.1L578,212.3h38.9l48,125.7l47.9-125.7h37.9l-65.1,162.8H643.4z M838.2,379.3c-54,0-87.6-40.3-87.6-85.6
		c0-45.7,33.4-85.5,88-85.5c45.9,0,87.1,32.9,87.1,85.6C925.7,341.3,890.2,379.3,838.2,379.3z"/>
	<path class="st0" d="M838.1,241.6L838.1,241.6c-30.4,0-50.9,24-50.9,52.1c0,30,21.3,52.2,51,52.2c27.6,0,51.1-21,51.1-52
		C889.3,261.3,865.5,241.6,838.1,241.6z"/>
	<path class="st0" d="M478.4,241.6c-28.3,0-49.1,20.6-49.1,51.9c0,30.8,20.3,52.1,49.1,52.1c26.4,0,48.9-19.1,48.9-52
		C527.3,264.3,507.9,241.6,478.4,241.6z"/>
	<path class="st0" d="M172.4,241.6c-29.5,0-48.9,22.6-48.9,52c0,32.9,22.4,52,48.9,52c28.8,0,49.1-21.3,49.1-52.1
		C221.5,262.3,200.7,241.6,172.4,241.6z"/>
</g>
</svg>
