<?xml version="1.0" encoding="utf-8"?>
<!-- Generator: Adobe Illustrator 22.1.0, SVG Export Plug-In . SVG Version: 6.00 Build 0)  -->
<svg version="1.1"
	 id="svg1928" inkscape:version="0.91 r13725" sodipodi:docname="CBS_Eyemark.svg" xmlns:cc="http://creativecommons.org/ns#" xmlns:dc="http://purl.org/dc/elements/1.1/" xmlns:inkscape="http://www.inkscape.org/namespaces/inkscape" xmlns:rdf="http://www.w3.org/1999/02/22-rdf-syntax-ns#" xmlns:sodipodi="http://sodipodi.sourceforge.net/DTD/sodipodi-0.dtd" xmlns:svg="http://www.w3.org/2000/svg"
	 xmlns="http://www.w3.org/2000/svg" xmlns:xlink="http://www.w3.org/1999/xlink" x="0px" y="0px" viewBox="0 0 1000 1000"
	 style="enable-background:new 0 0 1000 1000;" xml:space="preserve">
<sodipodi:namedview  bordercolor="#666666" borderopacity="1" fit-margin-bottom="0" fit-margin-left="0" fit-margin-right="0" fit-margin-top="0" gridtolerance="10" guidetolerance="10" id="namedview3969" inkscape:current-layer="svg1928" inkscape:cx="950.40824" inkscape:cy="380.98699" inkscape:pageopacity="0" inkscape:pageshadow="2" inkscape:window-height="705" inkscape:window-maximized="1" inkscape:window-width="1366" inkscape:window-x="-8" inkscape:window-y="-8" inkscape:zoom="0.5" objecttolerance="10" pagecolor="#ffffff" showgrid="false">
	</sodipodi:namedview>
<g id="g3054" transform="matrix(8.1902784,0,0,8.8742398,1153.8142,153.47996)">
	<path id="path2997" inkscape:connector-curvature="0" sodipodi:nodetypes="ssscsccscccsssss" d="M-79.7-17.3
		c-34.1,0-61.1,25.3-61.1,56.2c0,31.2,27.1,56.5,61.1,56.5c34.2,0,61-25.3,61-56.5C-18.8,8-45.5-17.3-79.7-17.3L-79.7-17.3z
		 M-79.7,6.5c27.8,0,48.2,16.1,56.8,32.3c-8.6,16.5-29,32.7-56.8,32.7c-28,0-48.2-16.2-56.8-32.7C-127.9,22.6-107.7,6.5-79.7,6.5
		L-79.7,6.5z M-79.7,9.1c-18.1,0-32.9,13.4-32.9,29.8c0,16.7,14.8,29.9,32.9,29.9S-47,55.5-47,38.9C-47,22.5-61.6,9.1-79.7,9.1
		L-79.7,9.1z"/>
</g>
</svg>
