<?xml version="1.0" encoding="UTF-8" standalone="no"?>
<!-- Created with Inkscape (http://www.inkscape.org/) -->

<svg
   xmlns:dc="http://purl.org/dc/elements/1.1/"
   xmlns:cc="http://creativecommons.org/ns#"
   xmlns:rdf="http://www.w3.org/1999/02/22-rdf-syntax-ns#"
   xmlns:svg="http://www.w3.org/2000/svg"
   xmlns="http://www.w3.org/2000/svg"
   xmlns:sodipodi="http://sodipodi.sourceforge.net/DTD/sodipodi-0.dtd"
   xmlns:inkscape="http://www.inkscape.org/namespaces/inkscape"
   width="1000"
   height="887"
   id="svg2"
   version="1.1"
   inkscape:version="0.48.5 r10040"
   sodipodi:docname="A.svg">
  <defs
     id="defs4" />
  <sodipodi:namedview
     id="base"
     pagecolor="#ffffff"
     bordercolor="#666666"
     borderopacity="1.0"
     inkscape:pageopacity="0.0"
     inkscape:pageshadow="2"
     inkscape:zoom="0.28505859"
     inkscape:cx="875.94599"
     inkscape:cy="370.7164"
     inkscape:document-units="px"
     inkscape:current-layer="layer1"
     showgrid="false"
     showguides="true"
     inkscape:guide-bbox="true"
     fit-margin-top="0"
     fit-margin-left="0"
     fit-margin-right="0"
     fit-margin-bottom="0"
     inkscape:window-width="1018"
     inkscape:window-height="1031"
     inkscape:window-x="905"
     inkscape:window-y="-9"
     inkscape:window-maximized="0">
    <inkscape:grid
       type="xygrid"
       id="grid2996"
       empspacing="5"
       visible="true"
       enabled="true"
       snapvisiblegridlinesonly="true"
       originx="-160px"
       originy="887.00002px" />
  </sodipodi:namedview>
  <metadata
     id="metadata7">
    <rdf:RDF>
      <cc:Work
         rdf:about="">
        <dc:format>image/svg+xml</dc:format>
        <dc:type
           rdf:resource="http://purl.org/dc/dcmitype/StillImage" />
        <dc:title></dc:title>
      </cc:Work>
    </rdf:RDF>
  </metadata>
  <g
     inkscape:label="Layer 1"
     inkscape:groupmode="layer"
     id="layer1"
     transform="translate(-160,-1052.3622)">
    <path
       style="fill:#1e2f5a;fill-opacity:1;stroke:none"
       d="m 359,1488.5858 0,-123.4997 83,-83.5003 847,0 70,83.5003 0,123.4997 z"
       id="path3092"
       inkscape:connector-curvature="0"
       transform="translate(-199,450.77639)"
       sodipodi:nodetypes="ccccccc" />
    <path
       style="fill:#3dbac4;fill-opacity:1;stroke:none"
       d="m 1359,977.58578 0,387.50032 -1000,0 0,-387.50032 160,-160 720,0 z"
       id="path3090"
       inkscape:connector-curvature="0"
       transform="translate(-199,450.77639)"
       sodipodi:nodetypes="ccccccc" />
    <path
       style="fill:#b51f30;fill-opacity:1;stroke:none"
       d="m 1121,977.58578 -124.70766,-216 124.70766,-160 238,0 0,376 z"
       id="path3088"
       inkscape:connector-curvature="0"
       transform="translate(-199,450.77639)" />
    <path
       style="fill:#ec3e28;fill-opacity:1;stroke:none"
       d="M 837,977.58578 714,764.54353 837,601.58578 l 284,0 0,376 z"
       id="path3086"
       inkscape:connector-curvature="0"
       transform="translate(-199,450.77639)" />
    <path
       style="fill:#9e2c20;fill-opacity:1;stroke:none"
       d="m 598,977.58578 -169,-169 169,-207 239,0 0,376 z"
       id="path3084"
       inkscape:connector-curvature="0"
       transform="translate(-199,450.77639)" />
    <path
       style="fill:#e8642d;fill-opacity:1;stroke:none"
       d="m 359,977.58578 0,-376 239,0 0,376 z"
       id="path3082"
       inkscape:connector-curvature="0"
       transform="translate(-199,450.77639)" />
    <path
       style="fill:#fff7e7;fill-opacity:1;stroke:none"
       d="m 475,784.58578 96,0 0,99 c 0,48.61742 -33.13084,79.00034 -89.95855,79.00034 C 427.19398,962.58612 386,934.65159 386,874.58578 l 0,-164 c 0,-53.42335 40.20982,-84.11477 93.83556,-84.11477 56.16582,0 90.66444,32.71466 90.66444,76.11477 l 0,35.60035 -59,0 0,-29.60035 c 0,-16.92271 -14.06288,-27.13704 -30.73261,-27.13704 -20.5594,0 -28.76739,14.01947 -28.76739,29.13704 l 0,167 c 0,17.8228 11.44381,29.04904 28.88106,29.04904 17.31762,0 27.11894,-8.97354 27.11894,-27.04904 l 0,-46 -33,0 z"
       id="path3044"
       inkscape:connector-curvature="0"
       transform="translate(-199,450.77639)"
       sodipodi:nodetypes="ccccccccccccccccccc" />
    <path
       style="fill:#fff7e7;fill-opacity:1;stroke:none"
       d="m 674.96875,631.125 -66.34375,326.46875 59.84375,0 13.21875,-73 66.3125,0 13,73 65.65625,0 -63.4375,-326.46875 -88.25,0 z m 40.1875,71.25 22.125,129.71875 -45.15625,0 23.03125,-129.71875 z"
       transform="translate(-199,450.77639)"
       id="path3046"
       inkscape:connector-curvature="0" />
    <path
       style="fill:#fff7e7;fill-opacity:1;stroke:none"
       d="m 862,957.58578 0,-326 82.43692,0 35.76178,130.63035 37.3628,-130.63035 78.4385,0 0,326 -57,0 0,-231 -37.4961,141 -44.5039,0 -38,-141 0,231 z"
       id="path3050"
       inkscape:connector-curvature="0"
       transform="translate(-199,450.77639)"
       sodipodi:nodetypes="cccccccccccccc" />
    <path
       style="fill:#fff7e7;fill-opacity:1;stroke:none"
       d="m 1160.5,957.58578 0,-326 157,0 0,54.50035 -93,0 0,76.49965 73.5,0 0,55 -73.5,0 0,84.50035 93.5,0 0,55.49965 z"
       id="path3052"
       inkscape:connector-curvature="0"
       transform="translate(-199,450.77639)"
       sodipodi:nodetypes="ccccccccccccc" />
    <path
       style="fill:#fff7e7;fill-opacity:1;stroke:none"
       d="m 482.66397,1286.7816 c 9.95262,0 23.56538,-6.0415 23.56538,-29.4567 0,-50.4987 -108.33099,-85.908 -108.33099,-170.9265 0,-45.0909 29.05548,-83.689 86.8704,-83.689 58.11179,0 80.03993,42.3589 81.14922,92.7198 l -56.93675,1.5116 c -2.49782,-26.5436 -10.21962,-42.4022 -27.82886,-42.4022 -14.45244,0 -23.17779,11.346 -23.17779,26.7436 0,42.7026 111.70301,87.7735 111.70301,171.663 0,53.6267 -38.12666,86.6647 -87.71128,86.6647 -53.85269,0 -85.87096,-34.901 -88.9128,-94.184 l 60.27001,-1.9379 c 1.96581,23.5633 8.51619,43.2936 29.34045,43.2936 z"
       id="path3054"
       inkscape:connector-curvature="0"
       transform="translate(-199,450.77639)"
       sodipodi:nodetypes="ccccccccccccc" />
    <path
       style="fill:#fff7e7;fill-opacity:1;stroke:none"
       d="m 601,1334.5858 0,-326 64.4,0 0,132 56.6,0 0,-132 64.7,0 0,326 -64.7,0 0,-135.4997 -56.6,0 0,135.4997 z"
       id="path3056"
       inkscape:connector-curvature="0"
       transform="translate(-199,450.77639)"
       sodipodi:nodetypes="ccccccccccccc" />
    <path
       style="fill:#fff7e7;fill-opacity:1;stroke:none"
       d="m 910.84375,1003.375 c -61.9813,0 -94.84375,38.284 -94.84375,84.2188 l 0,167 c 0,52.2219 33.95948,85 93.78125,85 60.23391,0 94.21875,-38.1108 94.21875,-84 l 0,-167 c 0,-47.4944 -30.61258,-85.2188 -93.15625,-85.2188 z m -1.25,56.125 c 14.36264,0 30.21875,9.8986 30.21875,30.2188 l 0,162.0624 c 0,18.562 -11.78402,30.75 -29.625,30.75 -16.29281,0 -29.1875,-10.8152 -29.1875,-29.1874 l 0,-165.75 c 0,-17.1984 12.15121,-28.0938 28.59375,-28.0938 z"
       transform="translate(-199,450.77639)"
       id="path3058"
       inkscape:connector-curvature="0" />
    <path
       style="fill:#fff7e7;fill-opacity:1;stroke:none"
       d="m 1029,1008.5858 63.8126,0 26.5845,195.4568 29.2602,-195.472 62.1304,0 27.5545,195.1115 26.6578,-195.0963 56.6768,0 -52.6768,327 -60,0 -32.3289,-210.8637 -33.6711,210.8637 -60.8212,0 z"
       id="path3062"
       inkscape:connector-curvature="0"
       transform="translate(-199,450.77639)"
       sodipodi:nodetypes="cccccccccccccc" />
    <path
       style="fill:#3dbac4;fill-opacity:1;stroke:none"
       d="m 413,1386.5858 23.67009,0 26.12991,32.6711 0,-32.6711 24.7,0 0,74.5003 -22.5,0 -27.2,-34.5003 0,34.5003 -24.8,0 z"
       id="path3064"
       inkscape:connector-curvature="0"
       transform="translate(-199,450.77639)"
       sodipodi:nodetypes="ccccccccccc" />
    <path
       style="fill:#3dbac4;fill-opacity:1;stroke:none"
       d="m 549,1386.5858 63.4,0 0,20.4883 -39,0 0,7.5117 36.1,0 0,18 -36.1,0 0,8 39.2,0 0,20.5003 -63.6,0 z"
       id="path3066"
       inkscape:connector-curvature="0"
       transform="translate(-199,450.77639)"
       sodipodi:nodetypes="ccccccccccccc" />
    <path
       style="fill:#3dbac4;fill-opacity:1;stroke:none"
       d="m 669.6,1407.5858 0,-21 68.4,0 0,21 -22,0 0,53.5003 -24.5,0 0,-53.5003 z"
       id="path3068"
       inkscape:connector-curvature="0"
       transform="translate(-199,450.77639)"
       sodipodi:nodetypes="ccccccccc" />
    <path
       style="fill:#3dbac4;fill-opacity:1;stroke:none"
       d="m 792,1386.5858 26.31007,0 10.61241,35.5426 11.68993,-35.5426 21.69766,0 12.07752,35.4651 10.22482,-35.4651 25.77518,0 -24.38759,75 -21.61241,0 -13.08525,-37.3799 -12.99227,37.3799 -21.69766,0 z"
       id="path3070"
       inkscape:connector-curvature="0"
       transform="translate(-199,450.77639)"
       sodipodi:nodetypes="cccccccccccccc" />
    <path
       style="fill:#3dbac4;fill-opacity:1;stroke:none"
       d="m 1002.5625,1384.875 c -25.45941,0 -41.25,19.5962 -41.25,38.8125 0,19.7907 16.08263,39 40.5625,39 21.0967,0 40.7812,-15.3055 40.7812,-38.9375 0,-19.2386 -14.9149,-38.875 -40.0937,-38.875 z m -0.3125,22 c 9.553,0 15.1875,8.5345 15.1875,16.875 0,10.2453 -7.4646,16.875 -15.4687,16.875 -9.28785,0 -15.37505,-8.3576 -15.37505,-16.9375 0,-8.3308 5.99681,-16.8125 15.65625,-16.8125 z"
       transform="translate(-199,450.77639)"
       id="path3072"
       inkscape:connector-curvature="0" />
    <path
       style="fill:#3dbac4;fill-opacity:1;stroke:none"
       d="m 1102.4062,1386.5938 0,74.5 24.5938,0 0,-21.5 5.2812,0 14.2188,21.5 28.5,0 -17.7188,-25.3438 c 7.2202,-2.9461 14.9063,-9.743 14.9063,-23.1562 0,-17.4932 -13.4728,-26 -30.1875,-26 l -39.5938,0 z m 24.5938,20.7812 11,0 c 5.5099,0 9.5312,2.6051 9.5312,7.4062 0,4.5046 -4.1244,7.2188 -8.5312,7.2188 l -12,0 0,-14.625 z"
       transform="translate(-199,450.77639)"
       id="path3076"
       inkscape:connector-curvature="0" />
    <path
       style="fill:#3dbac4;fill-opacity:1;stroke:none"
       d="m 1231,1461.0861 0,-74.5003 25,0 0,28 21,-28 29,0 -26,32.6029 27,41.8974 -30,0 -14.6163,-23.6099 -6.3837,7.7807 0,15.8292 z"
       id="path3080"
       inkscape:connector-curvature="0"
       transform="translate(-199,450.77639)"
       sodipodi:nodetypes="ccccccccccccc" />
  </g>
</svg>
