<?xml version="1.0" encoding="utf-8"?>
<!-- Generator: Adobe Illustrator 24.1.0, SVG Export Plug-In . SVG Version: 6.00 Build 0)  -->
<svg version="1.1" id="Layer_1" xmlns="http://www.w3.org/2000/svg" xmlns:xlink="http://www.w3.org/1999/xlink" x="0px" y="0px"
	 viewBox="0 0 250 28.7" style="enable-background:new 0 0 250 28.7;" xml:space="preserve">
<style type="text/css">
	.st0{fill:#FFFFFF;}
	.st1{fill:#A0907D;}
</style>
<g id="Layer_1-2">
	<path class="st0" d="M21.6,20.7L20,28.1h-3.7l-4-0.1L9,27.9c-1.3,0-2.4,0-3.3,0s-2,0-3.2,0.1c-1.3,0.1-2.1,0.1-2.4,0.1V27
		c0.7-0.1,1.4-0.2,2.1-0.4c0.4-0.1,0.7-0.3,1-0.6c0.3-0.3,0.5-0.8,0.6-1.2c0.1-0.8,0.2-1.6,0.1-2.4v-16c0-1.9-0.2-3.2-0.6-3.7
		S1.8,1.8,0.2,1.7V0.6c0.8,0,1.9,0,3.2,0.1s2.1,0.1,2.4,0.1c0.3,0,1.1,0,2.4-0.1s2.3-0.1,3.2-0.1v1C10.6,1.7,9.9,1.8,9.2,2
		C8.8,2.1,8.4,2.3,8.1,2.7C7.8,3,7.7,3.4,7.6,3.9C7.5,4.7,7.5,5.5,7.5,6.3v16.8c-0.1,0.8,0.1,1.7,0.3,2.5c0.2,0.4,0.8,0.6,1.8,0.6
		h4.8c0.9,0,1.8-0.2,2.6-0.7c0.8-0.5,1.4-1.1,1.9-1.9c0.6-1,1.2-2.1,1.6-3.3L21.6,20.7z"/>
	<path class="st0" d="M49.8,28.1c-0.3,0-1.1,0-2.2-0.1c-1.1-0.1-2.1-0.1-2.9-0.1c-0.8,0-1.8,0-3.1,0.1s-2,0.1-2.4,0.1V27
		c1.7-0.2,2.7-0.6,3-1.2c0.3-0.8,0.2-1.6-0.1-2.4l-1.7-5.6H31l-2,5.6c-0.4,0.8-0.4,1.6-0.2,2.4c0.2,0.4,0.5,0.6,0.9,0.8
		c0.7,0.2,1.4,0.4,2.1,0.4v1.1c-0.3,0-1,0-2-0.1c-1-0.1-1.9-0.1-2.6-0.1s-1.4,0-2.2,0.1s-1.4,0.1-1.8,0.1V27c0.8-0.1,1.6-0.4,2.3-1
		c0.6-0.7,1-1.4,1.3-2.3l6.8-18.3c0.6-1.5,1.1-3,1.5-4.6l1.5-0.2c0.6-0.1,1.2-0.2,1.8-0.3c0.1,0.6,0.7,2.3,1.6,5l6.3,18.3
		c0.3,0.8,0.7,1.6,1.2,2.3c0.7,0.5,1.5,0.9,2.3,1L49.8,28.1z M39.8,16l-4-12.3L31.6,16H39.8z"/>
	<path class="st0" d="M82.2,1.7c-0.3,0-0.6,0.1-0.9,0.2c-0.2,0.1-0.5,0.3-0.7,0.5c-0.8,0.8-1.4,1.9-1.7,3l-7.7,19.3
		c-0.3,0.9-0.6,1.6-0.8,2.1l-0.4,1.1l-2.5,0.6c-0.1-0.3-0.3-0.9-0.6-1.7c-0.3-0.8-0.6-1.5-0.8-2.1L63.2,17l-3,7.5
		c-0.4,1.1-0.7,1.9-0.9,2.3s-0.3,0.8-0.4,1.1l-2.5,0.6c-0.1-0.3-0.3-0.9-0.6-1.7c-0.3-0.8-0.5-1.5-0.8-2.1L47.4,5
		c-0.3-0.9-0.7-1.7-1.2-2.4c-0.5-0.4-1.1-0.7-1.7-0.9V0.6c0.6,0,1.3,0,2.2,0.1c0.9,0.1,1.5,0.1,1.7,0.1c0.2,0,0.8,0,1.8-0.1
		s1.8-0.1,2.4-0.1v1C52,1.7,51.4,2,51,2.4c-0.3,0.5-0.2,1.5,0.4,3.2l6.9,18.8l4-9.6L58.1,4.5c-0.3-0.7-0.6-1.4-1.1-1.9
		c-0.5-0.5-1.1-0.8-1.8-0.9V0.6c0.6,0,1.3,0,2.2,0.1s1.4,0.1,1.6,0.1c0.2,0,0.8,0,1.7-0.1s1.7-0.1,2.2-0.1v1c-0.3,0-0.6,0.1-0.9,0.2
		c-0.2,0.1-0.3,0.3-0.4,0.5c-0.2,0.8-0.1,1.6,0.3,2.3l2.4,6.3l2.5-6.3C67.1,4,67.2,3.2,67,2.4c-0.3-0.5-0.8-0.7-1.4-0.7V0.6
		c0.5,0,1.2,0,1.9,0.1s1.3,0.1,1.5,0.1s0.7,0,1.3-0.1c0.6-0.1,1.1-0.1,1.7-0.1v1c-0.8,0-1.5,0.3-2.1,0.7c-0.6,0.6-1,1.3-1.2,2.1
		l-3.7,8.7l4.4,11.2l7.2-18.8c0.6-1.4,0.7-2.4,0.4-3s-1-0.8-2.2-0.9V0.6c0.6,0,1.3,0,2.2,0.1c0.9,0.1,1.5,0.1,1.7,0.1s0.8,0,1.5-0.1
		s1.4-0.1,2-0.1L82.2,1.7z"/>
	<path class="st0" d="M149.7,20.3l-1.9,5.9c-0.8,0.6-1.8,1.2-2.8,1.5c-1.8,0.7-3.7,1-5.6,0.9c-1.9,0-3.9-0.3-5.7-1
		c-1.7-0.6-3.2-1.6-4.4-2.9c-1.3-1.3-2.2-2.9-2.8-4.6c-0.7-1.9-1-4-1-6c0-2,0.4-4.1,1.2-5.9c0.7-1.7,1.8-3.2,3.1-4.5
		c1.3-1.2,2.9-2.1,4.5-2.8c1.7-0.7,3.4-1,5.2-1c2-0.1,3.9,0.2,5.8,0.8c1,0.3,2.1,0.8,3,1.4l0.1,6.4l-1,0.2c-1-4.8-3.7-7.3-8.2-7.3
		c-1.3,0-2.5,0.3-3.6,0.8c-1.2,0.6-2.2,1.4-3,2.4c-0.9,1.2-1.7,2.5-2.1,4c-0.5,1.8-0.8,3.6-0.8,5.4c0,1.8,0.2,3.7,0.7,5.5
		c0.4,1.4,1.1,2.8,2,4c0.8,1,1.8,1.8,3,2.4c1.1,0.6,2.3,0.8,3.6,0.8c2.1,0.1,4.2-0.6,5.8-1.9c1.6-1.3,2.8-3.1,3.6-5L149.7,20.3z"/>
	<path class="st0" d="M175.5,28.1c-0.3,0-0.9,0-1.6-0.1c-0.7-0.1-1.3-0.1-1.6-0.1c-0.4,0-1,0-1.6,0.1l-1.5,0.1l-5.5-10.5
		c-0.3-0.7-0.7-1.3-1.1-1.9c-0.4-0.4-0.9-0.5-1.4-0.5l-2.8-0.2v7.3c0,0.9,0,1.5,0,1.9c0,0.3,0.1,0.7,0.2,1c0.1,0.3,0.2,0.5,0.4,0.7
		c0.3,0.3,0.7,0.5,1.1,0.7c0.6,0.2,1.2,0.3,1.9,0.4V28c-0.3,0-1.1,0-2.4-0.1c-1.3-0.1-2.3-0.1-3.1-0.1c-0.8,0-1.9,0-3.2,0.1
		c-1.3,0.1-2.1,0.1-2.4,0.1v-1c0.7-0.1,1.4-0.2,2.1-0.4c0.4-0.1,0.8-0.4,1.1-0.7c0.2-0.2,0.3-0.4,0.4-0.7c0.1-0.4,0.2-0.7,0.2-1.1
		c0-0.5,0.1-1.1,0.1-1.8v-16c0-0.8,0-1.7-0.1-2.5c-0.1-0.4-0.2-0.8-0.5-1.2c-0.5-0.5-1.5-0.8-3.1-0.9V0.6c0.8,0,1.8,0,2.9,0.1
		c1.1,0.1,1.9,0.1,2.4,0.1c0.4,0,1.2,0,2.6-0.1s2.5-0.1,3.4-0.1c1.6,0,3.1,0.2,4.6,0.8c1.1,0.4,2,1.1,2.8,1.9c1,1,1.5,2.4,1.4,3.8
		c0,1.2-0.3,2.3-0.9,3.3c-0.6,1-1.5,1.8-2.4,2.4c-1,0.7-2.1,1.1-3.2,1.4c0.8,0.1,1.5,0.5,2,1.2c0.7,1,1.4,2.1,1.9,3.2l3,5.7
		c0.4,0.8,1,1.4,1.7,1.9c0.7,0.4,1.4,0.7,2.2,0.8L175.5,28.1z M167.2,7.5L167.2,7.5c0.1-1.6-0.6-3.2-1.9-4.1c-1.4-0.9-3-1.3-4.6-1.3
		h-1.3c-0.3,0-0.6,0-0.8,0.2c-0.2,0.2-0.2,0.5-0.2,0.8v10.7l2.4-0.1c1.8,0,3.5-0.6,4.9-1.7C166.7,10.8,167.3,9.1,167.2,7.5z"/>
	<path class="st0" d="M188.7,28.1c-0.3,0-1.1,0-2.4-0.1s-2.4-0.1-3.3-0.1s-1.9,0-3.2,0.1s-2.1,0.1-2.4,0.1V27
		c0.7-0.1,1.5-0.2,2.2-0.4c0.4-0.1,0.7-0.3,1-0.6c0.3-0.3,0.5-0.8,0.6-1.2c0.1-0.8,0.2-1.6,0.1-2.4v-16c0-1.9-0.2-3.2-0.6-3.7
		c-0.4-0.5-1.4-0.8-3.1-0.9V0.6c0.8,0,1.9,0,3.1,0.1c1.2,0.1,2,0.1,2.3,0.1c0.3,0,1.1,0,2.4-0.1s2.3-0.1,3.1-0.1v1
		c-1.6,0.1-2.6,0.5-3,1c-0.3,0.3-0.5,0.8-0.5,1.2c-0.1,0.8-0.1,1.6-0.1,2.5v16c0,0.9,0,1.5,0.1,1.9c0,0.3,0.1,0.7,0.2,1
		c0.1,0.3,0.2,0.5,0.4,0.7c0.2,0.2,0.4,0.4,0.7,0.5c0.3,0.1,0.7,0.3,1,0.3c0.5,0.1,1,0.2,1.5,0.2L188.7,28.1z"/>
	<path class="st0" d="M226,28.1c-0.3,0-1.1,0-2.3-0.1c-1.2-0.1-2.3-0.1-3.1-0.1c-0.8,0-1.8,0-3.1,0.1s-2,0.1-2.4,0.1V27
		c0.8,0,1.6-0.2,2.3-0.4c0.4-0.2,0.8-0.5,0.9-1c0.2-0.8,0.2-1.6,0.2-2.4l-0.3-19.1L210,23.2c-0.4,0.8-0.7,1.8-1.1,2.8
		s-0.6,1.8-0.8,2.2h-1.1l-0.7-2c-0.3-0.9-0.7-1.9-1.2-3L197.7,5l-1.1,17.6c-0.1,0.9-0.1,1.7,0.1,2.5c0.1,0.5,0.5,1,1,1.2
		c0.8,0.3,1.7,0.5,2.5,0.5V28c-0.4,0-1.1,0-2.1-0.1s-1.9-0.1-2.7-0.1c-0.8,0-1.7,0-2.7,0.1s-1.7,0.1-2.1,0.1v-1
		c0.8-0.1,1.5-0.2,2.2-0.5c0.5-0.3,0.9-0.7,1.1-1.2c0.3-0.8,0.4-1.6,0.5-2.5l1.5-17.6c0.2-0.8,0-1.5-0.4-2.2
		c-0.5-0.7-1.7-1.1-3.4-1.3V0.6c0.7,0,1.4,0,2.3,0.1c0.9,0.1,1.4,0.1,1.7,0.1s1,0,1.9-0.1l2.1-0.1c0.2,1,0.5,1.9,0.8,2.8l7.6,18.6
		l7.9-19c0.2-0.5,0.4-0.9,0.5-1.4c0.1-0.3,0.1-0.7,0.2-1l2.1,0.1c0.9,0.1,1.6,0.1,1.9,0.1s0.9,0,1.8-0.1s1.6-0.1,2.2-0.1v1
		c-0.6,0-1.3,0.2-1.9,0.4c-0.4,0.1-0.7,0.4-1,0.7c-0.2,0.4-0.4,0.8-0.4,1.2c-0.1,0.7-0.1,1.4-0.1,2.2l0.5,17c0,0.6,0.1,1.3,0.2,1.9
		c0.1,0.4,0.3,0.7,0.6,1c0.3,0.3,0.7,0.5,1.1,0.5c0.6,0.2,1.2,0.3,1.8,0.4V28.1z"/>
	<path class="st0" d="M250,21l-1.7,7.1l-7.1-0.1c-4.1-0.1-6.8-0.1-7.9-0.1c-0.8,0-1.9,0-3.2,0.1c-1.3,0.1-2.1,0.1-2.4,0.1V27
		c0.7-0.1,1.4-0.2,2.1-0.4c0.4-0.1,0.7-0.3,1-0.6c0.3-0.3,0.5-0.8,0.6-1.2c0.1-0.8,0.2-1.6,0.1-2.4v-16c0-1.9-0.2-3.2-0.6-3.7
		s-1.4-0.8-3.1-0.9V0.6c0.8,0,1.9,0,3.1,0.1c1.2,0.1,2,0.1,2.3,0.1h3.7l4.1-0.1l3.6-0.1h3l0.1,6.2L247,7c-0.3-1-0.7-2-1.2-3
		c-0.3-0.6-0.8-1-1.4-1.3c-0.9-0.3-1.8-0.4-2.7-0.4H237c-0.8,0-1.3,0.1-1.5,0.3c-0.2,0.5-0.3,1-0.3,1.6v9l4.3-0.1
		c0.7,0,1.4-0.1,2.1-0.2c0.4-0.1,0.8-0.3,1.1-0.6c0.7-0.8,1-1.9,1-2.9h1c0,0.7,0,1.6-0.1,2.7c-0.1,1.1-0.1,1.7-0.1,2
		c0,0.3,0,0.9,0.1,2c0.1,1.1,0.1,2,0.1,2.7h-1c0-1.1-0.3-2.2-1-3.1c-0.3-0.3-0.7-0.5-1.1-0.6c-0.7-0.1-1.4-0.2-2.2-0.2l-4.3-0.1v8.6
		c0,0.6,0,1.2,0.2,1.8c0.1,0.4,0.4,0.7,0.8,0.8c0.6,0.2,1.2,0.3,1.8,0.2h4.8c0.9,0,1.9-0.2,2.7-0.7c0.8-0.5,1.5-1.1,2-1.9
		c0.6-0.9,1.1-1.9,1.5-2.9L250,21z"/>
	<path class="st0" d="M111,16.5c-0.4,0.6-0.9,1.2-1.4,1.7c-0.6,0.5-1.3,0.8-2.1,0.7c-0.6,0-1.1-0.1-1.6-0.4c-0.4-0.3-0.7-0.6-1-1
		c-0.3-0.5-0.6-1-0.8-1.6c-0.7,0.8-1.4,1.5-2.3,2.1c-0.8,0.6-1.8,0.9-2.8,0.9c-1.1,0-2.3-0.4-3.1-1.1c-0.8-0.7-1.3-1.8-1.2-2.9
		c0-1.7,1.3-3.3,4-4.6c-0.5-0.3-1-0.6-1.3-1c-0.6-0.6-0.8-1.3-0.8-2.1c0-0.6,0.2-1.2,0.6-1.7C97.5,5,98,4.7,98.6,4.4
		c0.6-0.2,1.2-0.4,1.9-0.3c0.6,0,1.2,0.1,1.8,0.3c0.5,0.2,1,0.5,1.3,0.9c0.3,0.4,0.5,0.9,0.5,1.4c0,0.7-0.3,1.4-0.9,1.8
		c-0.6,0.5-1.4,0.9-2.1,1.2c1.5,0.9,2.8,2.1,3.8,3.5l0.8-1.2l0.5-0.6c0.2-0.2,0.3-0.4,0.4-0.7c0.1-0.2,0.2-0.4,0.2-0.6
		c0-0.4-0.4-0.7-1.3-0.7V8.7h0.8l1,0.1h0.8h0.8l0.9-0.1h0.8v0.7c-0.6,0-1.1,0.2-1.6,0.4c-0.5,0.3-0.9,0.7-1.2,1.1l-2.3,3l0.2,0.5
		l0.4,0.8l0.4,0.6c0.1,0.2,0.3,0.5,0.5,0.7c0.2,0.2,0.4,0.4,0.6,0.5c0.2,0.1,0.5,0.2,0.8,0.2c0.4,0,0.9-0.1,1.2-0.3
		c0.3-0.3,0.7-0.6,0.9-0.9L111,16.5z M103.5,15.1c-0.5-0.9-1.1-1.7-1.9-2.3c-0.8-0.7-1.6-1.4-2.4-2c-1.3,0.6-2.2,2-2.2,3.4
		c0,0.8,0.3,1.5,0.9,2.1c0.6,0.6,1.4,0.9,2.2,0.8c0.7,0,1.3-0.2,1.9-0.5C102.5,16.1,103.1,15.6,103.5,15.1L103.5,15.1z M102.2,6.9
		L102.2,6.9c0-0.5-0.2-1.1-0.5-1.5C101,4.7,99.8,4.7,99,5.4c-0.3,0.4-0.5,0.9-0.5,1.4c0,0.5,0.1,1,0.5,1.4c0.4,0.5,1,0.9,1.5,1.2
		C101.5,9,102.2,8,102.2,6.9L102.2,6.9z"/>
	<path class="st1" d="M104.3,25.1c2.3,1.9,2.8,3.3,2.7,3.4c-1-0.8-2.1-1.6-3.1-2.5c-0.6-0.6-1.5-0.6-2.1,0c0,0,0,0,0,0
		c-1,0.8-1.9,1.6-2.9,2.5c-0.3-0.6,2.7-3.3,2.6-3.4c-0.9,0.4-1.8,0.9-2.6,1.4c-1.8,1.5-4.4,1.4-6.1-0.3c2.2,0.9,3.9-0.4,5.8-1
		c1-0.3,2-0.5,3-0.6c0.7,0,1.1,0.3,1.2,0.2c2.4-0.7,4.4,0.2,6.6,1.1c1.1,0.3,2.2,0.4,3.3,0.4c-1.1,1-2.6,1.3-4,0.8
		c-0.9-0.4-1.8-0.9-2.7-1.4C105.5,25.6,104.9,25.4,104.3,25.1z M118.8,19.3l-4.8,2.9c0.4-1.6,0.6-3.1,0.7-4.8l-2.6,6.1
		C114.8,23.5,118.2,22,118.8,19.3z M91.1,17.8c0.1,1.5,0.3,3.1,0.8,4.6c-0.8-0.5-1.7-0.9-2.6-1.5s-1.7-1.2-2.6-1.9
		c1.4,3.2,4,4.5,7.2,4.7L91.1,17.8z M120.3,14.4l-3.3,4.1c-0.1-1.5-0.3-3.1-0.7-4.5c-0.3,2.2-0.7,4.4-1,6.8
		C117.7,19.2,120.2,17.8,120.3,14.4z M90.4,20.7l-0.9-6.4c-0.4,1.5-0.6,3-0.7,4.5l-3.3-3.8C85.5,17.3,88,20.1,90.4,20.7z M97.8,24.7
		c-0.7-0.5-1.5-1-2.3-1.6s-1.4-1.3-2-1.9c0.6,1.2,1.3,2.4,2.2,3.5l-2.8-0.4l-3-0.5C91.5,26,94.8,26.3,97.8,24.7L97.8,24.7z
		 M115.8,23.7l-5.4,0.9c0.8-1.1,1.5-2.3,2.1-3.6l-4.6,3.7C110.6,26,114.5,25.9,115.8,23.7L115.8,23.7z M85.6,9.3
		c-0.8,3,0.4,5.2,2.4,7.3l1.4-6.5c-0.8,1.2-1.6,2.5-2.2,3.9L85.6,9.3z M118.4,14c-0.6-1.4-1.3-2.8-2.2-4.1l1.5,6.4
		c2.1-1.8,3-4.6,2.4-7.3L118.4,14z M115.2,7l3.1,5c1.3-2.4,1.7-5.6,0.1-6.8c-0.1,1.4-0.2,2.8-0.3,4.2C117.3,8.5,116.3,7.7,115.2,7z
		 M87.3,12l3.1-5.1c-1.1,0.8-2.1,1.7-3,2.7c-0.1-1.5-0.2-3-0.3-4.5C85.8,7.5,86.3,9.7,87.3,12z M117.7,7.9c0.3-3.8-0.1-4.9-1.7-5.7
		l1.1,3.8l-3.4-2.9C114.3,5.5,116.4,6.1,117.7,7.9L117.7,7.9z M88,7.8c1.3-1.5,3.4-2.3,3.8-4.5l-3.4,2.9l1.3-4.3
		C87.6,3.5,87.6,5.5,88,7.8z M93,0.6c-2,0.5-3.2,1.6-3,3.7L93,0.6z M115.8,4.3c-0.4-2-1.3-3.7-3.8-4.1L115.8,4.3z"/>
</g>
</svg>
