<?xml version="1.0" encoding="utf-8"?>
<!-- Generator: Adobe Illustrator 22.1.0, SVG Export Plug-In . SVG Version: 6.00 Build 0)  -->
<svg version="1.1" id="Layer_1" xmlns="http://www.w3.org/2000/svg" xmlns:xlink="http://www.w3.org/1999/xlink" x="0px" y="0px"
	 viewBox="0 0 1000 995.8" style="enable-background:new 0 0 1000 995.8;" xml:space="preserve">
<style type="text/css">
	.st0{fill:#FFFFFF;}
	.st1{filter:url(#Adobe_OpacityMaskFilter);}
	.st2{mask:url(#mask-2_2_);fill:#FFFFFF;}
</style>
<g>
	<g id="g3495">
		<g id="g3217" transform="matrix(0.60120052,0,0,0.58150801,29.425545,-3.1295255)">
			<polygon id="polygon3232" class="st0" points="470.4,103.9 434.6,122.5 406.9,94.3 413.4,133.5 378,152.2 417.9,158.8 
				424.3,199.1 442,162.9 481.4,169.2 452.6,140.8 			"/>
			<polygon id="polygon3234" class="st0" points="569.7,65.4 547.8,32.5 546.7,72.1 508.4,83.5 546.4,97.7 544.9,138.7 569.3,106.5 
				606.8,120.4 583.9,86.6 608.1,54.3 			"/>
			<polygon id="polygon3236" class="st0" points="341,170.8 309.7,195.9 277.1,173.6 290.7,210.9 259.4,235.8 300.1,234.8 
				314,273.1 324.4,234.2 364.2,232.8 330.7,210.2 			"/>
			<polygon id="polygon3238" class="st0" points="717,42.1 701.9,5.4 693.1,44.3 653.5,48.2 688.1,69.4 679,109.1 708.9,82.3 
				743.1,103.2 727.1,65.8 756.8,38.4 			"/>
			<polygon id="polygon3240" class="st0" points="133.5,427.6 128.5,387.1 108.6,422.2 70.5,413.9 97,443.3 77.1,478.3 114.3,461.8 
				141.1,492.1 136.7,452.2 173.1,435.7 			"/>
			<polygon id="polygon3242" class="st0" points="70.8,562.7 58.3,524.1 45.5,562.5 6.2,561.5 37.9,585.3 25,623.5 58.3,600.2 
				90.7,624.8 78.5,586.3 111.4,563.2 			"/>
			<polygon id="polygon3244" class="st0" points="228.1,271 202,301.7 166,286.1 186.4,320 160.5,350.5 200,341.6 220.8,376.5 
				223.7,336.5 262.7,327.3 225.4,311.7 			"/>
			<polygon id="polygon3252" class="st0" points="26.5,705 6.8,669.5 1.6,709.4 -37.2,716.2 -1.8,733.5 -7.1,773.5 21.3,744.1 
				57.6,762 38.5,726.7 66.1,697.6 			"/>
			<polygon id="polygon3272" class="st0" points="11.4,853.6 -14.6,822.5 -12.5,862.9 -48.9,876.9 -10.9,887 -8.6,927.1 13.7,892.9 
				52.8,903.6 27.2,872.5 49,838.7 			"/>
			<polygon id="polygon3280" class="st0" points="21.9,1187.1 60.8,1182.1 77.9,1218.3 85.9,1178.2 126,1173.4 90.9,1154.1 
				98.4,1114.6 69.3,1142.6 33.6,1123.6 50.6,1160.1 			"/>
			<polygon id="polygon3286" class="st0" points="4.8,1011.7 -28.6,1032.5 10.9,1035.1 20.4,1074.1 35.9,1036.2 76.4,1039 
				45.5,1013.5 60.5,976.1 26.4,998 -5,972.3 			"/>
		</g>
		<g id="g3287" transform="matrix(-0.60120052,0,0,0.58150801,185.93354,-3.1295255)">
			<polygon id="polygon3289" class="st0" points="-898.2,94.3 -891.7,133.5 -927.2,152.2 -887.2,158.8 -880.8,199.1 -863.2,162.9 
				-823.7,169.2 -852.5,140.8 -834.8,103.9 -870.5,122.5 			"/>
			<polygon id="polygon3291" class="st0" points="-758.4,72.1 -796.7,83.5 -758.8,97.7 -760.2,138.7 -735.9,106.5 -698.4,120.4 
				-721.3,86.6 -697,54.3 -735.4,65.4 -757.3,32.5 			"/>
			<polygon id="polygon3293" class="st0" points="-1028,173.6 -1014.4,210.9 -1045.7,235.8 -1005,234.8 -991.2,273.1 -980.7,234.2 
				-940.9,232.8 -974.5,210.2 -964.1,170.8 -995.4,195.9 			"/>
			<polygon id="polygon3295" class="st0" points="-612,44.3 -651.6,48.2 -617,69.4 -626.2,109.1 -596.3,82.3 -562.1,103.2 
				-578,65.8 -548.3,38.4 -588.1,42.1 -603.2,5.4 			"/>
			<polygon id="polygon3297" class="st0" points="-1196.5,422.2 -1234.6,413.9 -1208.2,443.3 -1228,478.3 -1190.8,461.8 
				-1164,492.1 -1168.5,452.2 -1132,435.7 -1171.6,427.6 -1176.6,387.1 			"/>
			<polygon id="polygon3299" class="st0" points="-1259.6,562.5 -1298.9,561.5 -1267.3,585.3 -1280.1,623.5 -1246.8,600.2 
				-1214.5,624.8 -1226.6,586.3 -1193.7,563.2 -1234.3,562.7 -1246.8,524.1 			"/>
			<polygon id="polygon3301" class="st0" points="-1139.1,286.1 -1118.7,320 -1144.6,350.5 -1105.1,341.6 -1084.3,376.5 
				-1081.4,336.5 -1042.4,327.3 -1079.7,311.7 -1077,271 -1103.1,301.7 			"/>
			<polygon id="polygon3303" class="st0" points="-1303.6,709.4 -1342.3,716.2 -1306.9,733.5 -1312.2,773.5 -1283.8,744.1 
				-1247.5,762 -1266.6,726.7 -1239,697.6 -1278.6,705 -1298.3,669.5 			"/>
			<polygon id="polygon3305" class="st0" points="-1317.6,862.9 -1354.1,876.9 -1316,887 -1313.7,927.1 -1291.4,892.9 
				-1252.4,903.6 -1277.9,872.5 -1256.2,838.7 -1293.8,853.6 -1319.7,822.5 			"/>
			<polygon id="polygon3307" class="st0" points="-1227.2,1218.3 -1219.2,1178.2 -1179.2,1173.4 -1214.2,1154.1 -1206.7,1114.6 
				-1235.9,1142.6 -1271.6,1123.6 -1254.5,1160.1 -1283.3,1187.1 -1244.3,1182.1 			"/>
			<polygon id="polygon3309" class="st0" points="-1294.3,1035.1 -1284.7,1074.1 -1269.2,1036.2 -1228.7,1039 -1259.6,1013.5 
				-1244.6,976.1 -1278.7,998 -1310.1,972.3 -1300.3,1011.7 -1333.7,1032.5 			"/>
		</g>
	</g>
	<path class="st0" d="M211.7,642.2l-1.4-2.2l41.3-68.1l23.6-36.8L302,507l-29.2,58.9l-15.9,12.4L211.7,642.2z M339.1,583.7l9.9-14.1
		l9.2-2.4l28-53.3l3.3-34.6l15.3-34.2l-1.2-4.5l-23.7,29.9l-5.9,2.1l-43,65.3l6.1,6.4l-44.4,99l29.8-30.9L339.1,583.7z M397.6,593.8
		l-4.5-7.5l-38.1,68.8l-8.9,38.6h7.4l24.3-29l9.9-45.2L397.6,593.8z M547,294.2l-30.5-30V363l-25.4,69.3l34.5,22l-58.7,158.2
		l11.3,9.7l-30.5,69l38.2,41.5h57.6l-9.9-25.1l87.1,32h98.8l-20.8-36l-10.8-28.3l-4.2-21.4l51.4,63.8h63.3l-18.6-38.5L751,650.4
		l-71.7-157.2l-31.9-9.7l-9.2,10.4h-5.6l-16-42.3l-16-28.4l-22.1-35.7L547,294.2z M497.4,96.8c-218.3,0-395.2,177.5-395.2,396.4
		c0,60.2,13.4,117.2,37.3,168.3l150.9-173.6l13-4.2l58.1-82l25.4-21.9l38.1-59.7l22.9-21.9l37-52l23.3-17.7l43.3,31.1l21.5,39.9
		l27.5,82l32.1,56.9l67.3,30l61,124.8l14.8,49.8l14.4,10.6l12.7,14.8l23.5,44.8c41.9-62.9,66.4-138.6,66.4-220
		C892.6,274.3,715.7,96.8,497.4,96.8z"/>
	<g>
		<g>
			<path id="Fill-1" class="st0" d="M906.6,771.5h-22.4l-5.2,11.7l-8.7,19.8h-10.5l-3.1,6.7h10.8l-13,28.9
				c-9.3,20.3-24,40.4-32.5,40.4c-1.8,0-2.9-0.8-2.9-2.7c0-1.7,0.5-3.6,2.7-8.7c2.7-6.2,7-15.1,10.2-21.6
				c4.6-9.4,12.1-24.3,12.1-31.6c0-7.4-4.7-13.1-13.9-13.1c-10.4,0-19.7,6.3-28.3,15.2l5.6-13.5h-21.2l-17.3,39.1
				c-6.9,13.9-21,36.9-29.7,36.9c-1.8,0-2.6-1.1-2.6-2.9c0-1,0.5-3,1.3-4.8c0.8-1.8,11.1-25.7,11.1-25.7l18.7-42.8h-22.7l-18.2,41.6
				c-5.7,12.9-19.9,34.6-29,34.6c-1.9,0-3.1-0.9-3.1-3.2c0-2.3,1.7-6.4,3-9.4l9.5-20.8l0,0l19.7-42.8h-22.7l-4.4,9.6l0,0
				c-3.3,6.5-9,14.2-17.9,14.2c-4.3,0-6.3-1.7-7.3-3.4c-1.3-14.4-10.4-22.1-24-22.1c-18.8,0-32.1,11.1-40.9,24.5
				c-5.9,8.9-9.8,18.6-13.4,29.8c-8,13.2-16.5,23.5-23.1,23.5c-1.7,0-2.7-1-2.7-3.2c0-2.5,2.2-7.3,3-9.1l14.7-31.3
				c4.1-9.7,7-16.1,7-22.4c0-6.8-4.7-11.6-12.4-11.6c-10.7,0-22.3,6.1-31.4,16.3c0.3-1.4,0.5-3.1,0.5-4.9c0-7.4-3.7-11.4-11.5-11.4
				c-9.8,0-19.8,5.8-29,16.3l6.1-14.7h-20.7l-17.4,39.1c-8.3,18.4-21.5,36.9-29.1,36.9c-1.8,0-2.8-0.9-2.8-3.1
				c0-3.6,3.9-12.3,5.4-15.8l23-52.2c1.7-3.9-9.3-6.3-23.4-6.3c-14.4,0-29.2,7.2-40.1,16.2c-7.6,6.3-13.3,9.5-16.2,9.5
				c-1.4,0-2.1-0.8-2.1-1.7c0-3.2,7.7-12.2,7.7-19c0-3.1-1.7-5.2-6-5.2c-8.3,0-18,7.9-25.2,16.1l6.1-14.4h-20.1l-17.3,39.1
				c-8.3,18.4-21.9,37.7-29.5,37.7c-1.8,0-2.8-0.9-2.8-3.2c0-3.5,3.7-12.1,5.8-16.6l23-52.2c1.7-3.9-9.3-6.3-23.4-6.3
				c-20.7,0-40.9,14-51.8,28.3c-11.8,15.6-19.8,32-20,45.5c-0.2,10.8,5.4,17.6,16.7,17.6c12.6,0,22.6-10,28.6-17.4
				c-0.1,0.8-0.7,3.5-0.7,4.5c0,7.5,3,12.9,12.1,12.9c8,0,18.8-6.7,27.5-17.5l-7,15.9h22l21.5-48.7c7-15.9,15.2-24.1,17.4-24.1
				c0.7,0,1,0.3,1,0.9c0,1.7-3.3,6.1-3.3,10.3c0,4.3,2.3,7.2,8.2,7.2c4.7,0,10-2.3,14.6-5.2c-11,15-18.5,30.7-18.6,43.6
				c-0.1,10.8,5.5,17.6,16.7,17.6c11.9,0,22.8-11.1,28.8-18.6c-0.2,1.2-0.4,3.7-0.4,5.2c0,7.3,4.1,13.4,12.6,13.4
				c9.3,0,16.9-5.8,26.3-17.2l-6.9,15.6H480l20.5-46.6c9-20.3,21.1-30.9,27.2-30.9c1.8,0,3,1,3,3c0,1.3-0.5,3.5-1.8,6.6l-30.1,67.9
				l23-0.1l21-47.4c9-20.3,19-30.3,26.5-30.3c2.2,0,3.2,1.2,3.2,3.6c0,1.4-0.4,3.6-2.2,7.4l-20.1,42.9c-1.7,3.7-3.3,8.9-3.3,13
				c0,6.5,3.6,12.3,13.6,12.3c13.1,0,23.1-9.9,34.3-24.7l0.1,3.2c0.8,11.8,7.5,22,24.9,22c20.6,0,37.3-14.3,47.4-36.8
				c4.5-10.1,6.7-18.7,7.3-25.3c1.9,1,4.3,1.6,7.3,1.6c2.8,0,6.2-0.6,9.7-2.4l-3.6,7.8c-4.1,8.6-8.7,18.2-12.1,26.2
				c-2.5,5.9-4,11.4-4,15.1c0,8.1,4.4,13.8,13.6,13.8c9.2,0,21.8-8.6,30.7-20.7h0.3c-0.5,2.4-1,5.8-1,7.6c0,6.6,2,13,11.4,13
				c10.9,0,19.3-7.9,27.5-17.7l-7,15.8H770l18.1-41.1c10.3-23.2,20.6-37.1,30.2-37.1c2,0,3.1,1.4,3.1,3.4c0,3.9-5.5,14.5-10.7,25.3
				c-4.7,9.7-8.2,17.1-10.7,23c-2.2,5.2-3.9,11.4-3.9,15.5c0,7.1,4,12.6,12.7,12.6c13.1,0,26.5-12.6,33.5-22.3
				c-1.6,4.5-2.6,9.9-2.6,14.2c0,13.1,8,19.6,18.9,19.6c7.7,0,14.5-2.7,20.4-6.8c8.6-6,15.5-14.9,21.4-23.2l-3.9-3.7
				c-5.4,7.7-11.4,15-17.5,19.5c-3.8,2.8-7.7,4.6-11.6,4.6c-4.7,0-7.7-2.4-7.7-8.5c0-6,2.8-14.1,7.1-24.8
				c0.2-0.5,6.3-14.2,12.2-27.4c5-11.2,9.8-22,10.7-24.2h14.7l3-6.7h-14.7L906.6,771.5z M267.8,879.1c-3.3,0-5.4-1.1-5.5-5.3
				c0.2-11.1,9.3-30.7,20.9-46.3c8-10.8,18.5-18.8,29.8-18.8l-14.3,31.8C288,864.5,276.3,879.1,267.8,879.1L267.8,879.1z
				 M407.7,879.1c-3.2,0-5.4-1.1-5.5-5.3c0.2-11.1,9.3-30.7,20.8-46.3c8-10.8,18.5-18.8,29.8-18.8l-14.3,31.8h0
				C427.8,864.8,416.7,879.1,407.7,879.1L407.7,879.1z M632.8,876.3c-5.1,7.1-9.4,9.2-13.2,9.2c-5.2,0-6.7-4.3-6.1-10.6
				c1.1-11.1,10.2-36.7,23-54.5c5.8-8.1,9.8-11.4,14.2-11.4c4.3,0,5.8,3.7,5.7,8.3C656.1,829.3,645.4,858.7,632.8,876.3L632.8,876.3
				z"/>
			<g id="Group-5" transform="translate(0.000000, 0.666256)">
				<g id="Clip-4">
				</g>
				<defs>
					<filter id="Adobe_OpacityMaskFilter" filterUnits="userSpaceOnUse" x="37.2" y="696.8" width="261.2" height="234.7">
						<feColorMatrix  type="matrix" values="1 0 0 0 0  0 1 0 0 0  0 0 1 0 0  0 0 0 1 0"/>
					</filter>
				</defs>
				<mask maskUnits="userSpaceOnUse" x="37.2" y="696.8" width="261.2" height="234.7" id="mask-2_2_">
					<g class="st1">
						<polygon id="path-1_2_" class="st0" points="37.2,696.8 298.3,696.8 298.3,931.4 37.2,931.4 						"/>
					</g>
				</mask>
				<path id="Fill-3" class="st2" d="M210.3,824.8c7.7-0.9,20.2-3.4,25-5.1c29.5-8.2,63-28,63-63.1c0-40.4-42.8-59.8-93.9-59.8
					c-54.5,0-104.5,24.1-123,61.5c-4.9,9.9-7.6,20.7-7.6,32.2c0,10.4,2.5,19.8,7.6,27.3c7.9,11.6,21.9,19,42.6,19
					c25.2,0,45.3-13.9,45.3-37.9c0,0,0.4-6.8-7.5-6.8c-6.5,0-8.1,4.4-8,6.8c0.9,18.9-10.2,34-30.3,34c-22.4,0-31.8-19-31.8-39.4
					c0-41.7,31.5-69.4,64.2-81.2c16.8-6.1,30.3-8.3,47.9-8.3c37,0,67.3,14.2,67.3,52.3c0,31.8-26.7,58.9-58.9,61.2l1.3-4.4
					c6.6-23.3,14.5-48.8,27.6-67.8c0.8-1.2,2.1-3,3.6-4.9l-1.8-2.2c-2.3,1.3-6.5,4.4-8.2,5.7c-61.5,47.9-63.3,182.3-145.2,182.3
					c-3,0-5.7-0.2-8.3-0.6c-17.1-2.8-26-14.2-26-30.2c0-3.1,1.1-7.5,1.1-9.9c0-4.1-2.8-8.4-8.9-8.4c-7.3,0-10.3,5.7-10.4,14.1
					c-0.4,23.9,17.2,37.8,44.3,40.3c3,0.3,6,0.4,9.2,0.4C154.5,931.4,193.8,883.3,210.3,824.8"/>
			</g>
		</g>
		<g>
			<polygon id="Fill-6" class="st0" points="231.6,974.2 207.3,940.1 197.7,940.1 197.7,995 209.1,995 209.1,961 233.3,995 
				242.9,995 242.9,940.1 231.6,940.1 			"/>
			<polygon id="Fill-8" class="st0" points="301.4,971.8 322.1,971.8 322.1,962 301.4,962 301.4,950.1 325.3,950.1 325.3,940.1 
				289.9,940.1 289.9,995 325.4,995 325.4,985 301.4,985 			"/>
			<polygon id="Fill-10" class="st0" points="397,950.1 415.5,950.1 415.5,940.1 367.2,940.1 367.2,950.1 385.7,950.1 385.7,995 
				397,995 			"/>
			<polygon id="Fill-12" class="st0" points="532.7,940.1 520.3,940.1 508.6,975.8 496.8,940.1 487.5,940.1 475.8,975.8 464,940.1 
				451.6,940.1 470.8,995 480.5,995 492.2,960.2 503.9,995 513.5,995 			"/>
			<path id="Fill-14" class="st0" d="M614.2,947.1c-5.4-5.2-12.2-7.8-20.5-7.8c-8.4,0-15.3,2.6-20.6,7.8c-5.4,5.1-8,12-8,20.5
				c0,8.5,2.6,15.4,8,20.6c5.4,5.1,12.2,7.7,20.6,7.7c8.3,0,15.2-2.6,20.5-7.7c5.4-5.2,8-12,8-20.6
				C622.2,959,619.5,952.2,614.2,947.1 M605.9,980.9c-3.1,3.3-7.2,4.9-12.2,4.9c-5.1,0-9.2-1.6-12.4-4.9c-3.2-3.3-4.7-7.7-4.7-13.3
				c0-5.7,1.5-10.1,4.7-13.3c3.2-3.3,7.3-4.9,12.4-4.9c5.1,0,9.1,1.6,12.2,4.9c3.2,3.2,4.7,7.6,4.7,13.3
				C610.6,973.2,609,977.6,605.9,980.9"/>
			<path id="Fill-16" class="st0" d="M705.5,957.7c0-5.5-1.6-9.8-4.9-12.9c-3.2-3.2-7.5-4.7-12.9-4.7h-23.6V995h11.4v-19.8h9.2
				l10.8,19.8h12.8l-11.7-21.6C702.2,970.7,705.5,965.3,705.5,957.7 M686.3,965.2h-10.8v-15.1h10.8c4.5,0,7.6,2.7,7.6,7.6
				C693.9,962.4,690.8,965.2,686.3,965.2"/>
			<polygon id="Fill-18" class="st0" points="781.2,940.1 762.5,962.8 762.5,940.1 751.1,940.1 751.1,995 762.5,995 762.5,979.8 
				769.3,971.7 784.6,995 798,995 776.9,962.6 795.8,940.1 			"/>
		</g>
	</g>
</g>
</svg>
