<?xml version="1.0" encoding="utf-8"?>
<!-- Generator: Adobe Illustrator 22.1.0, SVG Export Plug-In . SVG Version: 6.00 Build 0)  -->
<svg version="1.1"
	 id="Layer_1" xmlns:cc="http://creativecommons.org/ns#" xmlns:dc="http://purl.org/dc/elements/1.1/" xmlns:rdf="http://www.w3.org/1999/02/22-rdf-syntax-ns#"
	 xmlns="http://www.w3.org/2000/svg" xmlns:xlink="http://www.w3.org/1999/xlink" x="0px" y="0px" viewBox="0 0 252.1 136.7"
	 style="enable-background:new 0 0 252.1 136.7;" xml:space="preserve">
<path d="M1,1v97.6l13.6,13.6l13.6,13.6l9.9,9.9h213V35l-14.5-14.5l-7.5-7.4l-12-12L1,1L1,1z M23.4,20.4h26.4v24.2h19.4V71H49.9v45.2
	L23.4,89.8V20.4z M75.8,20.4h25.4v25.9c5.8-3.4,12.5-5.4,19.7-5.4c21.5,0,38.9,17.4,38.9,38.9s-17.4,38.9-38.9,38.9
	c-8.5,0-16.4-2.7-22.8-7.4v5H75.8V20.4L75.8,20.4z M193.4,39.7h14l19.3,19.5h-31.1c-3.7,0-5.4,1.3-5.4,3.1v0.2c0,2,2,3.3,9.8,4.7
	c18.9,3.5,31.5,9,31.5,23.8v0.2c0,15.5-12.7,25-32.6,25h-18.4L161,96.7h36c4.4,0,6.3-1.1,6.3-3.2v-0.2c0-2.1-2.3-3.3-10.2-4.9
	C176.6,85,162,80.3,162,64.7v-0.2C162.1,50.6,173.1,39.7,193.4,39.7L193.4,39.7z M121,66.2c-7.5,0-13.5,6-13.5,13.5
	s6,13.5,13.5,13.5s13.5-6.1,13.5-13.5C134.5,72.3,128.4,66.2,121,66.2z"/>
</svg>
