<?xml version="1.0" encoding="utf-8"?>
<!-- Generator: Adobe Illustrator 22.1.0, SVG Export Plug-In . SVG Version: 6.00 Build 0)  -->
<svg version="1.1" id="Layer_1" xmlns="http://www.w3.org/2000/svg" xmlns:xlink="http://www.w3.org/1999/xlink" x="0px" y="0px"
	 viewBox="0 0 345.5 183.3" style="enable-background:new 0 0 345.5 183.3;" xml:space="preserve">
<path d="M25.2,0v39.5H0v37.2h25.2v104.5h48.7V76.7h25.2V39.5H73.9V0H25.2L25.2,0z M106.1,39.5v141.8h48.7l0.1-64.1
	c0-19.9,10.6-28.5,36.6-28.5h7.7V39.5h-5.5c-18.4,0-32.2,5.7-42.6,23.9V39.5H106.1L106.1,39.5z M206.3,39.5V131
	c0,33,21.9,52.3,52.5,52.3c11.7,0,32-2.5,41.7-23v21.1h45V39.5H297v74c0,11.6-5.6,24.4-21.3,24.4c-16.2,0-21.3-13.2-21.3-24.2
	l0.1-74.2H206.3L206.3,39.5z"/>
</svg>
