<?xml version="1.0" encoding="utf-8"?>
<!-- Generator: Adobe Illustrator 24.0.2, SVG Export Plug-In . SVG Version: 6.00 Build 0)  -->
<svg version="1.1" id="Layer_1" xmlns="http://www.w3.org/2000/svg" xmlns:xlink="http://www.w3.org/1999/xlink" x="0px" y="0px"
	 viewBox="0 0 484.1 186.6" style="enable-background:new 0 0 484.1 186.6;" xml:space="preserve">
<g>
	<path d="M418.2,0.1c-36.4,0-66,29.5-66,65.9c0,36.4,29.5,65.9,66,65.9c36.4,0,65.9-29.5,65.9-65.9C484.1,29.6,454.6,0.1,418.2,0.1z
		 M415.7,54h-13.4l-6.6,38h-13l6.6-38h-14.1l2-11.2h40.4L415.7,54z M440.1,92h-14.5l-5-49.2h12.6l2.6,33.3L453,42.9h13.7L440.1,92z"
		/>
	<path d="M297,116.8c0,11.6-5.6,24.4-21.3,24.4c-16.2,0-21.3-13.2-21.3-24.2l0.1-74.2h-48.2h0v91.5c0,33,21.9,52.3,52.5,52.3
		c11.7,0,32-2.5,41.7-23v21.1h45V42.8l-48.5,0V116.8z"/>
	<polygon points="73.9,3.4 25.2,3.4 25.2,3.4 25.2,42.9 0,42.9 0,80 25.2,80 25.2,184.5 73.9,184.5 73.9,80 99.1,80 99.1,42.9 
		73.9,42.9 	"/>
	<path d="M151.1,66.7V42.9h-45l0,0v141.8h48.7l0.1-64.1c0-19.9,10.6-28.5,36.6-28.5h7.7V42.9h-5.5C175.3,42.9,161.5,48.5,151.1,66.7
		z"/>
</g>
</svg>
